#File written by LIBUNFOLD3D. Compilation :Nov 19 2015,18:10:47
mtllib Draw.mtl
#begin vertices
v -0.999929 -0.075894 -0.052028
v -0.9988 3.337313 -0.073757
v -0.999139 3.363011 -0.0916
v -0.999552 3.392964 -0.100627
v -0.999998 3.424241 -0.099956
v -1.000435 3.453779 -0.089652
v -1.000819 3.478687 -0.070723
v -1.001113 3.496528 -0.045023
v -1.001288 3.505554 -0.015067
v -1.001327 3.504882 0.016213
v -1.001225 3.494578 0.045754
v -1.000994 3.475651 0.070665
v -1.000656 3.449953 0.088508
v -1.000243 3.419999 0.097536
v -0.999796 3.388723 0.096865
v -0.99936 3.359185 0.08656
v -0.998976 3.334276 0.067632
v -0.998682 3.316436 0.041931
v -0.998507 3.30741 0.011975
v -0.999897 -0.081381 -0.021618
v 0.999866 -0.047405 -0.048936
v 1.000994 3.365802 -0.070665
v 1.000656 3.3915 -0.088508
v 1.000243 3.421453 -0.097536
v 0.999796 3.45273 -0.096865
v 0.99936 3.482268 -0.08656
v 0.998976 3.507176 -0.067632
v 0.998682 3.525017 -0.041931
v 0.998507 3.534043 -0.011975
v 0.998468 3.533371 0.019304
v 0.998569 3.523067 0.048846
v 0.9988 3.50414 0.073757
v 0.999139 3.478442 0.0916
v 0.999552 3.448489 0.100627
v 0.999998 3.417212 0.099956
v 1.000435 3.387674 0.089652
v 1.000819 3.362766 0.070723
v 1.001113 3.344925 0.045023
v 1.001288 3.335899 0.015067
v 0.999897 -0.052892 -0.018526
v -0.999897 3.406482 -0.001546
v 0.999897 3.434971 0.001546
v -0.998569 -0.3419 -0.088989
v -0.9988 -0.322973 -0.113901
v -0.999139 -0.297275 -0.131743
v -0.999552 -0.267321 -0.140771
v -0.999998 -0.236045 -0.1401
v -1.000435 -0.206507 -0.129796
v -1.000819 -0.181598 -0.110867
v -1.001113 -0.163758 -0.085167
v -0.999929 -0.075894 -0.052028
v -0.999897 -0.081381 -0.021618
v -1.001225 -0.165707 0.00561
v -1.000994 -0.184635 0.030522
v -1.000656 -0.210333 0.048364
v -1.000243 -0.240286 0.057392
v -0.999796 -0.271563 0.056721
v -0.99936 -0.301101 0.046417
v -0.998976 -0.326009 0.027488
v -0.998682 -0.343849 0.001788
v -0.998507 -0.352876 -0.028168
v -0.998468 -0.352204 -0.059448
v 1.001225 -0.313411 -0.085898
v 1.000994 -0.294484 -0.110809
v 1.000656 -0.268785 -0.128652
v 1.000243 -0.238832 -0.137679
v 0.999796 -0.207556 -0.137008
v 0.99936 -0.178017 -0.126704
v 0.998976 -0.153109 -0.107775
v 0.998682 -0.135269 -0.082075
v 0.999866 -0.047404 -0.048936
v 0.999897 -0.052892 -0.018526
v 0.998569 -0.137218 0.008702
v 0.9988 -0.156145 0.033613
v 0.999139 -0.181843 0.051456
v 0.999552 -0.211797 0.060484
v 0.999998 -0.243073 0.059813
v 1.000435 -0.272611 0.049508
v 1.000819 -0.29752 0.03058
v 1.001113 -0.31536 0.00488
v 1.001288 -0.324386 -0.025077
v 1.001327 -0.323715 -0.056356
v -0.999897 -0.253804 -0.041689
v 0.999897 -0.225314 -0.038598
#end vertices

#begin 174 textures vertices 
vt 0.03924329 0.3868401 0
vt 0.0356983 0.9703826 0
vt 0.03264589 0.9747753 0
vt 0.03110044 0.9798962 0
vt 0.03121295 0.9852441 0
vt 0.03297253 0.9902955 0
vt 0.03620704 0.9945558 0
vt 0.04059968 0.9976083 0
vt 0.04572059 0.9991538 0
vt 0.05106854 0.9990413 0
vt 0.05611986 0.9972816 0
vt 0.0603802 0.9940472 0
vt 0.06343261 0.9896545 0
vt 0.06497823 0.9845335 0
vt 0.06486572 0.9791857 0
vt 0.06310597 0.9741343 0
vt 0.05987163 0.9698738 0
vt 0.05547882 0.9668215 0
vt 0.05035791 0.965276 0
vt 0.04444219 0.3859005 0
vt 0.3381333 0 0
vt 0.4165242 0.5782742 0
vt 0.41732 0.5835638 0
vt 0.4181157 0.5888533 0
vt 0.4189113 0.5941429 0
vt 0.419707 0.5994325 0
vt 0.4205027 0.604722 0
vt 0.4212984 0.6100116 0
vt 0.4220941 0.6153011 0
vt 0.4228898 0.6205908 0
vt 0.4236853 0.6258803 0
vt 0.424481 0.6311698 0
vt 0.4252768 0.6364594 0
vt 0.4260724 0.6417491 0
vt 0.426868 0.6470386 0
vt 0.4276638 0.6523281 0
vt 0.4284595 0.6576177 0
vt 0.4292552 0.6629074 0
vt 0.4336454 0.5794056 0
vt 0.4333997 0 0
vt 0 0.05086331 0
vt 0.07839111 0.6291375 0
vt 0.0791867 0.6344271 0
vt 0.07998242 0.6397166 0
vt 0.08077817 0.6450063 0
vt 0.08157373 0.6502959 0
vt 0.08236938 0.6555853 0
vt 0.0831651 0.6608751 0
vt 0.08396079 0.6661646 0
vt 0.08475649 0.671454 0
vt 0.0855522 0.6767437 0
vt 0.08634789 0.6820332 0
vt 0.08714349 0.6873228 0
vt 0.08793911 0.6926123 0
vt 0.08873491 0.6979019 0
vt 0.08953054 0.7031915 0
vt 0.09032623 0.708481 0
vt 0.09112189 0.7137706 0
vt 0.09191755 0.7190602 0
vt 0.7753022 0.004870966 0
vt 0.01462529 0.8237275 0
vt 0.009503969 0.8252717 0
vt 0.005110514 0.828323 0
vt 0.001874866 0.8325825 0
vt 0.0001139394 0.8376334 0
vt 0 0.8429813 0
vt 0.001544084 0.8481026 0
vt 0.004595323 0.8524961 0
vt 0.008854801 0.8557316 0
vt 0.01390582 0.8574926 0
vt 0.01925357 0.8576066 0
vt 0.02437489 0.8560624 0
vt 0.02876852 0.8530111 0
vt 0.032004 0.8487517 0
vt 0.03376509 0.8437008 0
vt 0.03387903 0.8383528 0
vt 0.03233478 0.8332316 0
vt 0.02928354 0.8288381 0
vt 0.02541131 0.2452876 0
vt 0.0202119 0.2443508 0
vt 0.04803925 0.9822149 0
vt 0.01693943 0.8406671 0
vt 0.9378527 0.641649 0
vt 0.9335937 0.6448854 0
vt 0.9305434 0.6492795 0
vt 0.9290002 0.6544012 0
vt 0.9291152 0.659749 0
vt 0.9308771 0.6647995 0
vt 0.9341136 0.6690585 0
vt 0.9385076 0.6721088 0
vt 0.9441804 0.6871295 0
vt 0.9493652 0.6861917 0
vt 0.9540276 0.6717751 0
vt 0.9582867 0.6685386 0
vt 0.9613369 0.6641445 0
vt 0.9628801 0.6590229 0
vt 0.9627651 0.653675 0
vt 0.9610032 0.6486245 0
vt 0.9577668 0.6443656 0
vt 0.9533727 0.6413153 0
vt 0.9482511 0.639772 0
vt 0.9429032 0.639887 0
vt 0.9990353 0.5836616 0
vt 0.9990988 0.5890104 0
vt 0.9991625 0.594359 0
vt 0.9992261 0.5997078 0
vt 0.9992896 0.6050564 0
vt 0.9993532 0.6104051 0
vt 0.9994168 0.6157539 0
vt 0.9994804 0.6211026 0
vt 0.999246 0.6371571 0
vt 0.2720765 0.7091468 0
vt 0.4333997 0.694394 0
vt 0.4334553 0.6890451 0
vt 0.4335109 0.6836964 0
vt 0.4335666 0.6783476 0
vt 0.4336223 0.6729987 0
vt 0.4336778 0.66765 0
vt 0.4337334 0.6623012 0
vt 0.4337891 0.6569525 0
vt 0.4338448 0.6516037 0
vt 0.4339005 0.6462548 0
vt 0.4339561 0.6409061 0
vt 0.6571222 0.5877261 0
vt 0.6571857 0.5930747 0
vt 0.6572492 0.5984236 0
vt 0.6573128 0.6037722 0
vt 0.6573765 0.6091208 0
vt 0.6574399 0.6144696 0
vt 0.6575035 0.6198183 0
vt 0.6575671 0.6251669 0
vt 0.6573328 0.6412216 0
vt 0.6139754 0.7142652 0
vt 0.613777 0.6991148 0
vt 0.775374 0.6926029 0
vt 0.7754298 0.6872541 0
vt 0.7754855 0.6819052 0
vt 0.775541 0.6765565 0
vt 0.7755967 0.6712077 0
vt 0.7756524 0.6658589 0
vt 0.775708 0.6605102 0
vt 0.7757637 0.6551613 0
vt 0.7758194 0.6498126 0
vt 0.7758749 0.6444637 0
vt 0.9807493 0.6393904 0
vt 0.9756275 0.6409335 0
vt 0.9712334 0.6439838 0
vt 0.9679971 0.6482428 0
vt 0.966235 0.6532934 0
vt 0.9661201 0.6586411 0
vt 0.9676633 0.6637629 0
vt 0.9707137 0.668157 0
vt 0.9749726 0.6713933 0
vt 0.9796349 0.6858099 0
vt 0.9848343 0.686747 0
vt 0.9904926 0.671727 0
vt 0.9948866 0.6686767 0
vt 0.9981231 0.6644179 0
vt 0.999885 0.6593672 0
vt 1 0.6540194 0
vt 0.9984569 0.6488978 0
vt 0.9954065 0.6445036 0
vt 0.9911477 0.6412672 0
vt 0.986097 0.6395052 0
vt 0.9459402 0.656712 0
vt 0.9830601 0.6563303 0
vt 0.03972624 0.3868331 0
vt 0.02069621 0.2443537 0
vt 0.4300508 0.6681969 0
vt 0.7755481 0.5842766 0
vt 0.9441659 0.6871286 0
vt 0.9848198 0.6867478 0
vt 0.271878 0.6939963 0
vt 0.7753184 0.6979516 0
#end 174 textures vertices 

#begin 164 normals 
vn 0.001637 -0.006367 -0.999978
vn 0.00171 -0.011502 -0.999932
vn 0.00171 -0.011511 -0.999932
vn 0.001637 -0.006367 -0.999978
vn 0.007585 -0.434709 -0.900539
vn 0.007585 -0.434709 -0.900539
vn 0.003458 -0.135176 -0.990816
vn 0.003458 -0.135176 -0.990816
vn -0.001009 0.177589 -0.984104
vn -0.001009 0.177589 -0.984104
vn -0.005376 0.47297 -0.881062
vn -0.005376 0.47297 -0.881062
vn -0.009217 0.722054 -0.691775
vn -0.009217 0.722054 -0.691775
vn -0.012156 0.900458 -0.434773
vn -0.012156 0.900458 -0.434773
vn -0.013905 0.990719 -0.135212
vn -0.013905 0.990719 -0.135212
vn -0.014293 0.984002 0.177585
vn -0.014293 0.984002 0.177585
vn -0.013282 0.880963 0.472998
vn -0.013282 0.880963 0.472998
vn -0.01097 0.69169 0.722111
vn -0.01097 0.69169 0.722111
vn -0.007585 0.43471 0.900539
vn -0.007585 0.43471 0.900539
vn -0.003458 0.135176 0.990816
vn -0.003458 0.135176 0.990816
vn 0.001009 -0.177589 0.984104
vn 0.001009 -0.177589 0.984104
vn 0.005376 -0.47297 0.881062
vn 0.005376 -0.47297 0.881062
vn 0.009217 -0.722054 0.691776
vn 0.009217 -0.722054 0.691776
vn 0.012156 -0.900458 0.434773
vn 0.012156 -0.900458 0.434773
vn -0.001279 -0.018691 0.999825
vn -0.001279 -0.018707 0.999824
vn -0.001405 -0.009912 0.99995
vn -0.001405 -0.009912 0.99995
vn -0.999883 0.000124 -0.015309
vn -1 1e-006 0.000575
vn -0.999942 -0.000875 -0.01072
vn -0.999897 -0.014245 -0.001546
vn -0.999897 -0.014245 -0.001546
vn -0.999897 -0.014245 -0.001546
vn -0.999897 -0.014245 -0.001546
vn -0.999897 -0.014245 -0.001546
vn -0.999897 -0.014245 -0.001546
vn -0.999897 -0.014245 -0.001546
vn -0.999897 -0.014245 -0.001546
vn -0.999897 -0.014245 -0.001546
vn -0.999897 -0.014245 -0.001546
vn -0.999897 -0.014245 -0.001546
vn -0.999897 -0.014245 -0.001546
vn -0.999897 -0.014245 -0.001546
vn -0.999897 -0.014245 -0.001546
vn -0.999897 -0.014245 -0.001546
vn -0.999897 -0.014245 -0.001546
vn -0.995443 -0.000957 0.095349
vn -0.999999 -7e-006 0.001158
vn 1 -1e-006 -0.000575
vn 0.999883 -0.000124 0.01531
vn 0.999942 0.000875 0.010721
vn 0.999897 0.014245 0.001546
vn 0.999897 0.014245 0.001546
vn 0.999897 0.014245 0.001546
vn 0.999897 0.014245 0.001546
vn 0.999897 0.014245 0.001546
vn 0.999897 0.014245 0.001546
vn 0.999897 0.014245 0.001546
vn 0.999897 0.014245 0.001546
vn 0.999897 0.014245 0.001546
vn 0.999897 0.014245 0.001546
vn 0.999897 0.014245 0.001546
vn 0.999897 0.014245 0.001546
vn 0.999897 0.014245 0.001546
vn 0.999897 0.014245 0.001546
vn 0.999897 0.014245 0.001546
vn 0.999897 0.014245 0.001546
vn 0.995444 0.000956 -0.095346
vn 0.999999 7e-006 -0.001158
vn 0.013282 -0.880964 -0.472997
vn 0.01097 -0.69169 -0.722111
vn 0.01097 -0.69169 -0.722111
vn 0.013282 -0.880964 -0.472997
vn 0.007585 -0.434709 -0.900539
vn 0.007585 -0.434709 -0.900539
vn 0.003458 -0.135176 -0.990816
vn 0.003458 -0.135176 -0.990816
vn -0.001009 0.177589 -0.984104
vn -0.001009 0.177589 -0.984104
vn -0.005376 0.47297 -0.881062
vn -0.005376 0.47297 -0.881062
vn -0.009217 0.722054 -0.691775
vn -0.009217 0.722054 -0.691775
vn -0.005581 0.48656 -0.873629
vn -0.005576 0.486225 -0.873816
vn -0.003581 0.352933 -0.935642
vn -0.003581 0.352933 -0.935642
vn -0.00585 0.307347 0.95158
vn -0.007805 0.450997 0.892491
vn -0.0078 0.450619 0.892682
vn -0.00585 0.307347 0.95158
vn -0.01097 0.69169 0.722111
vn -0.01097 0.69169 0.722111
vn -0.007585 0.43471 0.900539
vn -0.007585 0.43471 0.900539
vn -0.003458 0.135176 0.990816
vn -0.003458 0.135176 0.990816
vn 0.001009 -0.177589 0.984104
vn 0.001009 -0.177589 0.984104
vn 0.005376 -0.47297 0.881062
vn 0.005376 -0.47297 0.881062
vn 0.009217 -0.722054 0.691776
vn 0.009217 -0.722054 0.691776
vn 0.012156 -0.900458 0.434773
vn 0.012156 -0.900458 0.434773
vn 0.013905 -0.990719 0.135212
vn 0.013905 -0.990719 0.135212
vn 0.014293 -0.984002 -0.177584
vn 0.014293 -0.984002 -0.177584
vn -0.999897 -0.014245 -0.001546
vn -0.999897 -0.014245 -0.001546
vn -0.999951 -0.009809 -0.001211
vn -0.999897 -0.014245 -0.001546
vn -0.999897 -0.014245 -0.001546
vn -0.999897 -0.014245 -0.001546
vn -0.999897 -0.014245 -0.001546
vn -0.999897 -0.014245 -0.001546
vn -0.999704 -0.001783 0.024255
vn -0.999953 0.000387 0.009663
vn -0.999969 0.000906 -0.007779
vn -0.999606 3e-006 -0.028075
vn -0.999897 -0.014245 -0.001546
vn -0.999897 -0.014245 -0.001546
vn -0.999897 -0.014245 -0.001546
vn -0.999897 -0.014245 -0.001546
vn -0.999897 -0.014245 -0.001546
vn -0.999897 -0.014245 -0.001546
vn -0.999897 -0.014245 -0.001546
vn -0.999897 -0.014245 -0.001546
vn -0.999897 -0.014245 -0.001546
vn 0.999897 0.014245 0.001546
vn 0.999897 0.014245 0.001546
vn 0.999951 0.009809 0.001211
vn 0.999897 0.014245 0.001546
vn 0.999897 0.014245 0.001546
vn 0.999897 0.014245 0.001546
vn 0.999897 0.014245 0.001546
vn 0.999897 0.014245 0.001546
vn 0.999704 0.001784 -0.024257
vn 0.999953 -0.000386 -0.009663
vn 0.999969 -0.000905 0.007779
vn 0.999606 -3e-006 0.028073
vn 0.999897 0.014245 0.001546
vn 0.999897 0.014245 0.001546
vn 0.999897 0.014245 0.001546
vn 0.999897 0.014245 0.001546
vn 0.999897 0.014245 0.001546
vn 0.999897 0.014245 0.001546
vn 0.999897 0.014245 0.001546
vn 0.999897 0.014245 0.001546
vn 0.999897 0.014245 0.001546
#end 164 normals 

#begin 118 faces
usemtl initialShadingGroup
g pCylinder1
s 1
f 1/21/1 2/22/2 22/42/3 21/41/4 
f 2/22/2 3/23/5 23/43/6 22/42/3 
f 3/23/5 4/24/7 24/44/8 23/43/6 
f 4/24/7 5/25/9 25/45/10 24/44/8 
f 5/25/9 6/26/11 26/46/12 25/45/10 
f 6/26/11 7/27/13 27/47/14 26/46/12 
f 7/27/13 8/28/15 28/48/16 27/47/14 
f 8/28/15 9/29/17 29/49/18 28/48/16 
f 9/29/17 10/30/19 30/50/20 29/49/18 
f 10/30/19 11/31/21 31/51/22 30/50/20 
f 11/31/21 12/32/23 32/52/24 31/51/22 
f 12/32/23 13/33/25 33/53/26 32/52/24 
f 13/33/25 14/34/27 34/54/28 33/53/26 
f 14/34/27 15/35/29 35/55/30 34/54/28 
f 15/35/29 16/36/31 36/56/32 35/55/30 
f 16/36/31 17/37/33 37/57/34 36/56/32 
f 17/37/33 18/38/35 38/58/36 37/57/34 
f 18/38/35 19/169/37 39/59/38 38/58/36 
f 19/39/37 20/40/39 40/60/40 39/170/38 
s 2
f 2/2/41 1/167/42 41/81/43 
f 3/3/44 2/2/41 41/81/43 
f 4/4/45 3/3/44 41/81/43 
f 5/5/46 4/4/45 41/81/43 
f 6/6/47 5/5/46 41/81/43 
f 7/7/48 6/6/47 41/81/43 
f 8/8/49 7/7/48 41/81/43 
f 9/9/50 8/8/49 41/81/43 
f 10/10/51 9/9/50 41/81/43 
f 11/11/52 10/10/51 41/81/43 
f 12/12/53 11/11/52 41/81/43 
f 13/13/54 12/12/53 41/81/43 
f 14/14/55 13/13/54 41/81/43 
f 15/15/56 14/14/55 41/81/43 
f 16/16/57 15/15/56 41/81/43 
f 17/17/58 16/16/57 41/81/43 
f 18/18/59 17/17/58 41/81/43 
f 19/19/60 18/18/59 41/81/43 
f 20/20/61 19/19/60 41/81/43 
f 1/1/42 20/20/61 41/81/43 
s 3
f 21/79/62 22/78/63 42/82/64 
f 22/78/63 23/77/65 42/82/64 
f 23/77/65 24/76/66 42/82/64 
f 24/76/66 25/75/67 42/82/64 
f 25/75/67 26/74/68 42/82/64 
f 26/74/68 27/73/69 42/82/64 
f 27/73/69 28/72/70 42/82/64 
f 28/72/70 29/71/71 42/82/64 
f 29/71/71 30/70/72 42/82/64 
f 30/70/72 31/69/73 42/82/64 
f 31/69/73 32/68/74 42/82/64 
f 32/68/74 33/67/75 42/82/64 
f 33/67/75 34/66/76 42/82/64 
f 34/66/76 35/65/77 42/82/64 
f 35/65/77 36/64/78 42/82/64 
f 36/64/78 37/63/79 42/82/64 
f 37/63/79 38/62/80 42/82/64 
f 38/62/80 39/61/81 42/82/64 
f 39/61/81 40/168/82 42/82/64 
f 40/80/82 21/79/62 42/82/64 
usemtl initialShadingGroup
g pCylinder2
s 1
f 43/103/83 44/104/84 64/125/85 63/124/86 
f 44/104/84 45/105/87 65/126/88 64/125/85 
f 45/105/87 46/106/89 66/127/90 65/126/88 
f 46/106/89 47/107/91 67/128/92 66/127/90 
f 47/107/91 48/108/93 68/129/94 67/128/92 
f 48/108/93 49/109/95 69/130/96 68/129/94 
f 49/109/95 50/110/97 70/131/98 69/130/96 
f 50/110/97 51/111/99 71/132/100 70/131/98 
f 52/112/101 53/173/102 73/134/103 72/133/104 
f 53/113/102 54/114/105 74/135/106 73/174/103 
f 54/114/105 55/115/107 75/136/108 74/135/106 
f 55/115/107 56/116/109 76/137/110 75/136/108 
f 56/116/109 57/117/111 77/138/112 76/137/110 
f 57/117/111 58/118/113 78/139/114 77/138/112 
f 58/118/113 59/119/115 79/140/116 78/139/114 
f 59/119/115 60/120/117 80/141/118 79/140/116 
f 60/120/117 61/121/119 81/142/120 80/141/118 
f 61/121/119 62/122/121 82/143/122 81/142/120 
f 62/122/121 43/123/83 63/144/86 82/143/122 
s 3
f 44/84/123 43/83/124 83/165/125 
f 45/85/126 44/84/123 83/165/125 
f 46/86/127 45/85/126 83/165/125 
f 47/87/128 46/86/127 83/165/125 
f 48/88/129 47/87/128 83/165/125 
f 49/89/130 48/88/129 83/165/125 
f 50/90/131 49/89/130 83/165/125 
f 51/91/132 50/90/131 83/165/125 
f 52/92/133 51/171/132 83/165/125 
f 53/93/134 52/92/133 83/165/125 
f 54/94/135 53/93/134 83/165/125 
f 55/95/136 54/94/135 83/165/125 
f 56/96/137 55/95/136 83/165/125 
f 57/97/138 56/96/137 83/165/125 
f 58/98/139 57/97/138 83/165/125 
f 59/99/140 58/98/139 83/165/125 
f 60/100/141 59/99/140 83/165/125 
f 61/101/142 60/100/141 83/165/125 
f 62/102/143 61/101/142 83/165/125 
f 43/83/124 62/102/143 83/165/125 
s 4
f 63/163/144 64/162/145 84/166/146 
f 64/162/145 65/161/147 84/166/146 
f 65/161/147 66/160/148 84/166/146 
f 66/160/148 67/159/149 84/166/146 
f 67/159/149 68/158/150 84/166/146 
f 68/158/150 69/157/151 84/166/146 
f 69/157/151 70/156/152 84/166/146 
f 70/156/152 71/172/153 84/166/146 
f 71/155/153 72/154/154 84/166/146 
f 72/154/154 73/153/155 84/166/146 
f 73/153/155 74/152/156 84/166/146 
f 74/152/156 75/151/157 84/166/146 
f 75/151/157 76/150/158 84/166/146 
f 76/150/158 77/149/159 84/166/146 
f 77/149/159 78/148/160 84/166/146 
f 78/148/160 79/147/161 84/166/146 
f 79/147/161 80/146/162 84/166/146 
f 80/146/162 81/145/163 84/166/146 
f 81/145/163 82/164/164 84/166/146 
f 82/164/164 63/163/144 84/166/146 
#end 118 faces

#begin properties
#U3DPROPERTIES_00 table {Mesh table {SymPlane table {Point vector3d 0 0 0  Normal vector3d 1 0 0  Threshold double 0.01 Enabled bool false } Maps table {Density table {PrimType string "Polygon" Size int 1 DefaultValue double 1 ScaleType string "Log" MinValue double 0.1 MaxValue double 4 Data doubles { r 118 1 } } Pin table {PrimType string "Vertex" Size int 1 DefaultValue double 0 ScaleType string "Normalized" MinValue double 0 MaxValue double 1 Data doubles { r 174 0 } } Protect table {PrimType string "Vertex" Size int 1 DefaultValue double 0 ScaleType string "Normalized" MinValue double -1 MaxValue double 1 Data doubles { r 174 0 } } } } }
#end properties

#begin 0 fatal error vertex (that Unfold3D cannot handle)
#end 0 fatal error vertex (that Unfold3D cannot handle)

#begin 0 error vertex
#end 0 error vertex
